<?xml version="1.0" standalone="no"?>
<!DOCTYPE svg PUBLIC "-//W3C//DTD SVG 20010904//EN"
 "http://www.w3.org/TR/2001/REC-SVG-20010904/DTD/svg10.dtd">
<svg version="1.0" xmlns="http://www.w3.org/2000/svg"
 width="928.000000pt" height="1280.000000pt" viewBox="0 0 928.000000 1280.000000"
 preserveAspectRatio="xMidYMid meet">
<metadata>
Created by potrace 1.15, written by Peter Selinger 2001-2017
</metadata>
<g transform="translate(0.000000,1280.000000) scale(0.100000,-0.100000)"
fill="#000000" stroke="none">
<path d="M2278 12789 c-473 -55 -761 -326 -887 -834 -53 -216 -69 -355 -81
-690 -5 -168 -23 -401 -49 -660 -22 -220 -72 -724 -111 -1120 -39 -396 -102
-1035 -140 -1420 -125 -1267 -210 -2131 -270 -2740 -54 -552 -58 -609 -49
-709 32 -362 171 -693 413 -984 230 -277 562 -487 871 -553 33 -7 61 -13 63
-15 2 -1 -456 -691 -1017 -1533 l-1021 -1531 589 0 590 0 123 180 123 181
3197 -1 3197 0 3 22 c2 18 36 -25 141 -179 l138 -203 590 0 589 0 -1021 1531
c-561 842 -1019 1532 -1017 1533 2 2 30 8 63 15 166 35 388 136 540 246 427
307 699 780 744 1293 9 99 7 147 -19 400 -61 588 -82 787 -170 1647 -50 484
-99 966 -110 1070 -11 105 -60 584 -110 1065 -49 481 -121 1181 -159 1555 -54
519 -73 745 -81 955 -5 151 -15 316 -20 365 -76 673 -320 997 -828 1103 -69
14 -307 16 -2407 18 -1306 1 -2364 -2 -2407 -7z m3325 -379 c71 -26 141 -96
167 -167 18 -49 20 -78 20 -346 0 -168 -4 -308 -10 -329 -29 -103 -124 -188
-233 -207 -87 -15 -1729 -15 -1813 0 -109 20 -185 83 -224 187 -18 48 -20 78
-20 347 0 342 5 366 87 448 91 92 22 86 1060 86 889 1 914 0 966 -19z m1392
-1423 c153 -46 292 -145 375 -267 86 -126 143 -320 155 -530 4 -58 34 -357 66
-665 57 -530 59 -565 49 -660 -47 -421 -342 -709 -775 -755 -121 -13 -4329
-13 -4450 0 -199 21 -343 80 -494 202 -152 124 -255 325 -281 553 -11 98 -9
114 60 670 39 314 75 633 81 710 11 165 22 236 50 325 62 197 185 328 371 396
118 43 68 42 2458 40 2159 -1 2278 -2 2335 -19z m-4063 -5855 c164 -45 239
-131 257 -295 19 -171 -27 -316 -123 -388 -54 -41 -145 -73 -246 -88 -195 -29
-756 -20 -883 14 -131 34 -217 98 -258 190 -47 105 -46 304 2 401 54 113 145
160 364 188 17 2 206 3 420 2 361 -3 396 -4 467 -24z m4283 18 c231 -21 349
-98 390 -256 43 -167 -10 -377 -117 -457 -103 -77 -213 -105 -460 -116 -355
-16 -643 10 -760 70 -67 34 -133 103 -164 172 -23 53 -28 79 -32 172 -11 267
85 385 334 414 97 12 688 12 809 1z m-1130 -2217 c61 -86 112 -161 113 -165 2
-4 -712 -8 -1587 -8 -875 0 -1591 2 -1591 4 0 4 127 212 176 289 l24 37 1378
0 1377 -1 110 -156z m469 -668 c102 -146 186 -267 186 -270 0 -3 -945 -5
-2101 -5 -1155 0 -2099 3 -2097 8 2 4 35 54 73 112 39 58 113 176 165 263 l95
157 1747 0 1747 0 185 -265z m508 -740 c87 -126 158 -233 158 -237 0 -5 -1161
-8 -2581 -8 -2061 0 -2580 3 -2576 13 5 12 251 377 294 435 l24 32 2262 -2
2262 -3 157 -230z m313 -463 c8 -9 87 -123 175 -252 l160 -235 -1535 -3 c-844
-1 -2226 -1 -3070 0 l-1535 3 160 235 c88 129 167 243 175 252 14 17 159 18
2735 18 2576 0 2721 -1 2735 -18z"/>
</g>
</svg>
